<mxfile host="app.diagrams.net" modified="2023-08-11T03:53:05.345Z" agent="Mozilla/5.0 (Windows NT 10.0; Win64; x64) AppleWebKit/537.36 (KHTML, like Gecko) Chrome/115.0.0.0 Safari/537.36" etag="HNa9DXZ46-RG8xfhrggw" version="21.6.5" type="device">
  <diagram name="페이지-1" id="eUpdBk76JH2hPJ1sERJ6">
    <mxGraphModel dx="1509" dy="1208" grid="1" gridSize="10" guides="1" tooltips="1" connect="1" arrows="1" fold="1" page="0" pageScale="1" pageWidth="827" pageHeight="1169" math="0" shadow="0">
      <root>
        <mxCell id="0" />
        <mxCell id="1" parent="0" />
        <mxCell id="ND1n2Tv03okDKAtpJxWI-16" style="edgeStyle=orthogonalEdgeStyle;rounded=0;orthogonalLoop=1;jettySize=auto;html=1;entryX=0;entryY=0.5;entryDx=0;entryDy=0;" edge="1" parent="1" source="ND1n2Tv03okDKAtpJxWI-1" target="ND1n2Tv03okDKAtpJxWI-2">
          <mxGeometry relative="1" as="geometry" />
        </mxCell>
        <mxCell id="ND1n2Tv03okDKAtpJxWI-17" style="edgeStyle=orthogonalEdgeStyle;rounded=0;orthogonalLoop=1;jettySize=auto;html=1;entryX=0;entryY=0.5;entryDx=0;entryDy=0;" edge="1" parent="1" source="ND1n2Tv03okDKAtpJxWI-1" target="ND1n2Tv03okDKAtpJxWI-4">
          <mxGeometry relative="1" as="geometry" />
        </mxCell>
        <mxCell id="ND1n2Tv03okDKAtpJxWI-1" value="Actor" style="shape=umlActor;verticalLabelPosition=bottom;verticalAlign=top;html=1;outlineConnect=0;rounded=0;" vertex="1" parent="1">
          <mxGeometry x="50" y="350" width="30" height="60" as="geometry" />
        </mxCell>
        <mxCell id="ND1n2Tv03okDKAtpJxWI-2" value="&lt;font style=&quot;font-size: 18px;&quot;&gt;매 출&lt;/font&gt;" style="ellipse;whiteSpace=wrap;html=1;rounded=0;" vertex="1" parent="1">
          <mxGeometry x="200" y="140" width="120" height="80" as="geometry" />
        </mxCell>
        <mxCell id="ND1n2Tv03okDKAtpJxWI-12" style="edgeStyle=orthogonalEdgeStyle;rounded=0;orthogonalLoop=1;jettySize=auto;html=1;entryX=1;entryY=0.5;entryDx=0;entryDy=0;" edge="1" parent="1" source="ND1n2Tv03okDKAtpJxWI-3" target="ND1n2Tv03okDKAtpJxWI-2">
          <mxGeometry relative="1" as="geometry" />
        </mxCell>
        <mxCell id="ND1n2Tv03okDKAtpJxWI-3" value="&lt;font style=&quot;font-size: 18px;&quot;&gt;매출 조회&lt;/font&gt;" style="ellipse;whiteSpace=wrap;html=1;rounded=0;" vertex="1" parent="1">
          <mxGeometry x="430" y="70" width="120" height="80" as="geometry" />
        </mxCell>
        <mxCell id="ND1n2Tv03okDKAtpJxWI-4" value="&lt;font style=&quot;font-size: 18px;&quot;&gt;상 품&lt;br&gt;&lt;/font&gt;" style="ellipse;whiteSpace=wrap;html=1;rounded=0;" vertex="1" parent="1">
          <mxGeometry x="200" y="690" width="120" height="80" as="geometry" />
        </mxCell>
        <mxCell id="ND1n2Tv03okDKAtpJxWI-11" value="" style="edgeStyle=orthogonalEdgeStyle;rounded=0;orthogonalLoop=1;jettySize=auto;html=1;" edge="1" parent="1" source="ND1n2Tv03okDKAtpJxWI-6" target="ND1n2Tv03okDKAtpJxWI-2">
          <mxGeometry relative="1" as="geometry" />
        </mxCell>
        <mxCell id="ND1n2Tv03okDKAtpJxWI-6" value="&lt;span style=&quot;font-size: 18px;&quot;&gt;매출 등록&lt;/span&gt;" style="ellipse;whiteSpace=wrap;html=1;rounded=0;" vertex="1" parent="1">
          <mxGeometry x="430" y="220" width="120" height="80" as="geometry" />
        </mxCell>
        <mxCell id="ND1n2Tv03okDKAtpJxWI-9" value="" style="edgeStyle=orthogonalEdgeStyle;rounded=0;orthogonalLoop=1;jettySize=auto;html=1;" edge="1" parent="1" source="ND1n2Tv03okDKAtpJxWI-7" target="ND1n2Tv03okDKAtpJxWI-3">
          <mxGeometry relative="1" as="geometry" />
        </mxCell>
        <mxCell id="ND1n2Tv03okDKAtpJxWI-7" value="&lt;span style=&quot;font-size: 18px;&quot;&gt;달 력&lt;/span&gt;" style="ellipse;whiteSpace=wrap;html=1;rounded=0;" vertex="1" parent="1">
          <mxGeometry x="650" y="70" width="120" height="80" as="geometry" />
        </mxCell>
        <mxCell id="ND1n2Tv03okDKAtpJxWI-10" value="" style="edgeStyle=orthogonalEdgeStyle;rounded=0;orthogonalLoop=1;jettySize=auto;html=1;" edge="1" parent="1" source="ND1n2Tv03okDKAtpJxWI-8" target="ND1n2Tv03okDKAtpJxWI-6">
          <mxGeometry relative="1" as="geometry" />
        </mxCell>
        <mxCell id="ND1n2Tv03okDKAtpJxWI-8" value="&lt;span style=&quot;font-size: 18px;&quot;&gt;POS&lt;/span&gt;" style="ellipse;whiteSpace=wrap;html=1;rounded=0;" vertex="1" parent="1">
          <mxGeometry x="650" y="220" width="120" height="80" as="geometry" />
        </mxCell>
        <mxCell id="ND1n2Tv03okDKAtpJxWI-18" value="&lt;span style=&quot;font-size: 18px;&quot;&gt;월 매출 조회&lt;/span&gt;" style="ellipse;whiteSpace=wrap;html=1;rounded=0;" vertex="1" parent="1">
          <mxGeometry x="900" y="-120" width="120" height="80" as="geometry" />
        </mxCell>
        <mxCell id="ND1n2Tv03okDKAtpJxWI-19" value="&lt;span style=&quot;font-size: 18px;&quot;&gt;일 매출 순위 조회&lt;/span&gt;" style="ellipse;whiteSpace=wrap;html=1;rounded=0;" vertex="1" parent="1">
          <mxGeometry x="900" y="70" width="120" height="80" as="geometry" />
        </mxCell>
        <mxCell id="ND1n2Tv03okDKAtpJxWI-20" value="" style="endArrow=none;dashed=1;html=1;entryX=0;entryY=0.5;entryDx=0;entryDy=0;" edge="1" parent="1" target="ND1n2Tv03okDKAtpJxWI-19">
          <mxGeometry width="50" height="50" relative="1" as="geometry">
            <mxPoint x="770" y="110" as="sourcePoint" />
            <mxPoint x="820" y="60" as="targetPoint" />
          </mxGeometry>
        </mxCell>
        <mxCell id="ND1n2Tv03okDKAtpJxWI-22" value="" style="endArrow=none;dashed=1;html=1;entryX=0;entryY=0.5;entryDx=0;entryDy=0;" edge="1" parent="1" target="ND1n2Tv03okDKAtpJxWI-18">
          <mxGeometry width="50" height="50" relative="1" as="geometry">
            <mxPoint x="770" y="110" as="sourcePoint" />
            <mxPoint x="820" y="60" as="targetPoint" />
            <Array as="points">
              <mxPoint x="770" y="-80" />
            </Array>
          </mxGeometry>
        </mxCell>
        <mxCell id="ND1n2Tv03okDKAtpJxWI-26" style="edgeStyle=orthogonalEdgeStyle;orthogonalLoop=1;jettySize=auto;html=1;entryX=1;entryY=0.5;entryDx=0;entryDy=0;" edge="1" parent="1" source="ND1n2Tv03okDKAtpJxWI-24" target="ND1n2Tv03okDKAtpJxWI-8">
          <mxGeometry relative="1" as="geometry" />
        </mxCell>
        <mxCell id="ND1n2Tv03okDKAtpJxWI-24" value="&lt;span style=&quot;font-size: 18px;&quot;&gt;주문 및 결제&lt;/span&gt;" style="ellipse;whiteSpace=wrap;html=1;rounded=0;" vertex="1" parent="1">
          <mxGeometry x="900" y="220" width="120" height="80" as="geometry" />
        </mxCell>
        <mxCell id="ND1n2Tv03okDKAtpJxWI-31" style="edgeStyle=orthogonalEdgeStyle;orthogonalLoop=1;jettySize=auto;html=1;entryX=1;entryY=0.5;entryDx=0;entryDy=0;" edge="1" parent="1" source="ND1n2Tv03okDKAtpJxWI-28" target="ND1n2Tv03okDKAtpJxWI-4">
          <mxGeometry relative="1" as="geometry" />
        </mxCell>
        <mxCell id="ND1n2Tv03okDKAtpJxWI-28" value="&lt;font style=&quot;font-size: 18px;&quot;&gt;레시피 조회&lt;br&gt;&lt;/font&gt;" style="ellipse;whiteSpace=wrap;html=1;rounded=0;" vertex="1" parent="1">
          <mxGeometry x="460" y="540" width="120" height="80" as="geometry" />
        </mxCell>
        <mxCell id="ND1n2Tv03okDKAtpJxWI-33" style="edgeStyle=orthogonalEdgeStyle;orthogonalLoop=1;jettySize=auto;html=1;entryX=1;entryY=0.5;entryDx=0;entryDy=0;" edge="1" parent="1" source="ND1n2Tv03okDKAtpJxWI-29" target="ND1n2Tv03okDKAtpJxWI-4">
          <mxGeometry relative="1" as="geometry" />
        </mxCell>
        <mxCell id="ND1n2Tv03okDKAtpJxWI-29" value="&lt;font style=&quot;font-size: 18px;&quot;&gt;상품 조회&lt;br&gt;&lt;/font&gt;" style="ellipse;whiteSpace=wrap;html=1;rounded=0;" vertex="1" parent="1">
          <mxGeometry x="460" y="860" width="120" height="80" as="geometry" />
        </mxCell>
        <mxCell id="ND1n2Tv03okDKAtpJxWI-32" style="edgeStyle=orthogonalEdgeStyle;orthogonalLoop=1;jettySize=auto;html=1;entryX=1;entryY=0.5;entryDx=0;entryDy=0;" edge="1" parent="1" source="ND1n2Tv03okDKAtpJxWI-30" target="ND1n2Tv03okDKAtpJxWI-4">
          <mxGeometry relative="1" as="geometry" />
        </mxCell>
        <mxCell id="ND1n2Tv03okDKAtpJxWI-30" value="&lt;font style=&quot;font-size: 18px;&quot;&gt;상품 등록&lt;br&gt;&lt;/font&gt;" style="ellipse;whiteSpace=wrap;html=1;rounded=0;" vertex="1" parent="1">
          <mxGeometry x="460" y="690" width="120" height="80" as="geometry" />
        </mxCell>
        <mxCell id="ND1n2Tv03okDKAtpJxWI-34" value="&lt;font style=&quot;font-size: 18px;&quot;&gt;이미지 조회&lt;br&gt;&lt;/font&gt;" style="ellipse;whiteSpace=wrap;html=1;rounded=0;" vertex="1" parent="1">
          <mxGeometry x="700" y="860" width="120" height="80" as="geometry" />
        </mxCell>
        <mxCell id="ND1n2Tv03okDKAtpJxWI-35" value="&lt;font style=&quot;font-size: 18px;&quot;&gt;리스트 조회&lt;br&gt;&lt;/font&gt;" style="ellipse;whiteSpace=wrap;html=1;rounded=0;" vertex="1" parent="1">
          <mxGeometry x="700" y="1000" width="120" height="80" as="geometry" />
        </mxCell>
        <mxCell id="ND1n2Tv03okDKAtpJxWI-36" value="&lt;font style=&quot;font-size: 18px;&quot;&gt;상품 수정&lt;br&gt;&lt;/font&gt;" style="ellipse;whiteSpace=wrap;html=1;rounded=0;" vertex="1" parent="1">
          <mxGeometry x="920" y="1000" width="120" height="80" as="geometry" />
        </mxCell>
        <mxCell id="ND1n2Tv03okDKAtpJxWI-37" value="&lt;font style=&quot;font-size: 18px;&quot;&gt;상품 삭제&lt;br&gt;&lt;/font&gt;" style="ellipse;whiteSpace=wrap;html=1;rounded=0;" vertex="1" parent="1">
          <mxGeometry x="920" y="1150" width="120" height="80" as="geometry" />
        </mxCell>
        <mxCell id="ND1n2Tv03okDKAtpJxWI-39" value="" style="endArrow=none;dashed=1;html=1;dashPattern=1 3;strokeWidth=2;exitX=1;exitY=0.5;exitDx=0;exitDy=0;" edge="1" parent="1">
          <mxGeometry width="50" height="50" relative="1" as="geometry">
            <mxPoint x="580" y="899.57" as="sourcePoint" />
            <mxPoint x="700" y="899.57" as="targetPoint" />
          </mxGeometry>
        </mxCell>
        <mxCell id="ND1n2Tv03okDKAtpJxWI-40" value="" style="endArrow=none;dashed=1;html=1;dashPattern=1 3;strokeWidth=2;exitX=1;exitY=0.5;exitDx=0;exitDy=0;" edge="1" parent="1" source="ND1n2Tv03okDKAtpJxWI-29">
          <mxGeometry width="50" height="50" relative="1" as="geometry">
            <mxPoint x="580" y="1039.57" as="sourcePoint" />
            <mxPoint x="700" y="1039.57" as="targetPoint" />
            <Array as="points">
              <mxPoint x="580" y="1040" />
            </Array>
          </mxGeometry>
        </mxCell>
        <mxCell id="ND1n2Tv03okDKAtpJxWI-42" value="" style="endArrow=none;dashed=1;html=1;dashPattern=1 3;strokeWidth=2;" edge="1" parent="1">
          <mxGeometry width="50" height="50" relative="1" as="geometry">
            <mxPoint x="820" y="1040" as="sourcePoint" />
            <mxPoint x="930" y="1039.5700000000002" as="targetPoint" />
          </mxGeometry>
        </mxCell>
        <mxCell id="ND1n2Tv03okDKAtpJxWI-43" value="" style="endArrow=none;dashed=1;html=1;dashPattern=1 3;strokeWidth=2;exitX=1;exitY=0.5;exitDx=0;exitDy=0;" edge="1" parent="1" source="ND1n2Tv03okDKAtpJxWI-35">
          <mxGeometry width="50" height="50" relative="1" as="geometry">
            <mxPoint x="810" y="1190" as="sourcePoint" />
            <mxPoint x="920" y="1189.5700000000002" as="targetPoint" />
            <Array as="points">
              <mxPoint x="820" y="1190" />
            </Array>
          </mxGeometry>
        </mxCell>
      </root>
    </mxGraphModel>
  </diagram>
</mxfile>
